<?xml version="1.0" standalone="no"?>
<!DOCTYPE svg PUBLIC "-//W3C//DTD SVG 20010904//EN"
 "http://www.w3.org/TR/2001/REC-SVG-20010904/DTD/svg10.dtd">
<svg version="1.0" xmlns="http://www.w3.org/2000/svg"
 width="960.000000pt" height="960.000000pt" viewBox="0 0 960.000000 960.000000"
 preserveAspectRatio="xMidYMid meet">
<metadata>
Created by potrace 1.11, written by Peter Selinger 2001-2013
</metadata>
<g transform="translate(0.000000,960.000000) scale(0.100000,-0.100000)"
fill="#000000" stroke="none">
<path d="M0 8040 c0 -1013 3 -1560 10 -1560 14 0 20 33 23 132 3 110 10 119
109 128 40 4 67 8 60 9 -7 0 -10 6 -6 12 4 7 22 9 48 5 76 -11 89 -11 94 2 3
9 -3 11 -23 6 -21 -5 -27 -4 -23 7 3 8 16 14 29 15 39 1 49 4 47 12 0 4 2 15
7 25 6 15 17 18 58 16 33 -2 52 1 55 9 2 7 -7 12 -25 13 -64 1 -119 11 -132
24 -22 22 -6 63 26 67 23 2 29 9 36 43 4 22 6 62 5 90 -3 43 -6 50 -28 55 -18
4 -25 12 -25 30 0 23 3 25 53 25 30 0 56 -3 58 -7 3 -4 7 -36 10 -70 7 -87 9
-91 33 -76 17 10 23 9 41 -7 11 -10 19 -28 18 -39 -3 -16 3 -20 34 -22 37 -3
65 17 65 46 0 8 4 36 8 63 7 43 5 47 -12 47 -11 0 -28 9 -37 19 -17 19 -17 20
3 38 12 10 32 19 44 20 31 3 87 -7 86 -15 -4 -24 2 -52 10 -48 5 3 7 15 4 26
-4 14 0 20 12 20 9 0 19 -9 22 -19 7 -26 42 -35 50 -13 8 23 35 48 60 56 12 4
24 18 27 32 6 24 10 25 42 19 30 -5 36 -3 41 14 3 12 9 21 14 21 5 0 9 9 9 19
0 21 -19 31 -60 31 -15 0 -42 3 -59 6 -26 5 -31 11 -31 34 0 22 6 29 33 36
l32 10 0 89 c0 85 -1 90 -25 102 -39 19 -31 38 18 41 62 5 72 -8 72 -89 0 -37
5 -71 10 -74 6 -3 10 -1 10 5 0 20 28 22 49 3 14 -12 21 -29 21 -54 0 -67 8
-73 46 -34 19 19 39 32 47 29 16 -6 25 40 23 115 -1 42 -3 45 -33 53 -60 15
-37 49 41 61 52 8 71 -11 72 -76 0 -36 5 -53 19 -63 23 -17 38 -1 29 31 -4 15
-3 17 5 6 8 -12 12 -12 25 -2 9 7 24 10 36 6 19 -6 21 -5 11 13 -17 32 -13 63
12 84 19 18 32 20 100 15 63 -4 77 -2 77 9 0 8 8 18 17 21 33 13 61 44 56 64
-5 16 0 19 31 19 30 0 37 -4 35 -17 -1 -10 -1 -21 0 -25 1 -10 41 24 41 34 0
5 -9 8 -20 8 -11 0 -20 3 -20 8 0 4 -10 12 -23 17 -31 14 -31 59 1 63 25 4 42
30 48 76 2 17 7 50 10 73 6 39 4 43 -25 57 -41 22 -40 43 4 52 49 9 65 -7 65
-67 0 -27 3 -48 8 -48 19 3 23 -2 12 -16 -19 -22 3 -44 25 -25 19 16 38 2 55
-40 10 -25 18 -30 46 -30 27 0 35 5 40 25 3 13 12 29 20 36 8 6 14 29 14 51 0
35 -4 41 -30 51 -42 16 -41 51 1 66 18 6 42 11 55 11 25 0 54 -33 55 -65 0
-11 3 -14 6 -7 5 12 33 17 33 5 0 -3 -7 -14 -16 -24 -9 -10 -13 -26 -10 -37 6
-17 12 -19 39 -12 45 11 67 21 67 30 0 5 8 11 18 13 13 4 12 5 -4 6 -21 1 -34
19 -34 46 0 33 127 78 155 55 9 -7 23 -9 37 -3 13 4 41 8 63 8 36 0 40 2 37
24 -2 20 1 22 19 18 35 -9 81 3 75 20 -8 21 4 38 15 22 6 -10 9 -11 9 -1 0 6
5 12 11 12 5 0 7 -4 4 -10 -3 -5 -2 -10 3 -10 5 0 9 -16 10 -36 2 -43 12 -60
12 -21 0 19 5 27 18 27 13 0 14 2 3 9 -9 6 -10 11 -2 15 6 4 11 16 11 27 0 15
-7 19 -35 19 -19 0 -35 5 -35 11 0 6 -7 9 -15 5 -8 -3 -29 -3 -45 1 -25 4 -30
10 -30 34 0 23 5 28 28 31 26 3 27 6 37 83 12 96 9 135 -13 135 -13 0 -12 3 4
15 44 33 51 20 59 -114 5 -82 15 -125 15 -63 0 64 51 47 69 -22 6 -24 18 -52
27 -61 9 -8 14 -24 11 -34 -5 -22 8 -49 20 -38 4 5 1 12 -7 17 -12 8 -12 10
-1 10 8 0 11 7 8 20 -7 28 14 70 36 70 23 0 35 33 42 118 6 68 5 70 -20 76
-28 7 -34 31 -10 40 20 7 74 -4 83 -18 7 -12 8 -17 11 -83 1 -39 3 -43 27 -43
32 0 64 -17 64 -34 0 -8 7 -17 16 -20 13 -5 14 -9 5 -20 -7 -8 -8 -16 -4 -19
12 -7 53 11 53 23 0 6 5 8 10 5 14 -9 12 19 -2 33 -9 9 -9 12 0 12 6 0 20 7
31 16 16 14 17 20 8 36 -9 14 -9 20 0 26 16 10 4 26 -34 46 -41 21 -42 32 -2
40 82 16 101 1 109 -83 5 -55 5 -56 40 -59 37 -4 70 -34 70 -64 0 -10 3 -18 8
-18 4 0 7 41 7 90 1 82 3 93 25 115 21 20 36 25 85 26 33 1 72 -3 86 -9 25
-10 26 -15 32 -101 4 -63 11 -96 21 -107 13 -13 16 -42 16 -163 0 -131 -2
-150 -18 -164 -10 -10 -24 -17 -30 -17 -6 0 -31 -13 -55 -30 -25 -16 -52 -30
-60 -30 -8 0 -20 -7 -27 -15 -7 -8 -18 -15 -24 -15 -15 0 -116 -98 -116 -113
0 -6 -7 -19 -17 -29 -11 -13 -16 -36 -16 -77 0 -50 4 -65 33 -105 48 -66 188
-178 288 -230 26 -14 37 -15 48 -5 9 7 18 8 27 2 6 -5 50 -17 97 -27 47 -9
104 -21 128 -26 53 -12 192 -13 192 -1 0 4 -25 11 -55 15 -30 3 -65 10 -77 15
-13 5 -58 17 -102 27 -43 9 -100 27 -127 40 -27 13 -53 24 -59 24 -20 0 -110
63 -130 90 l-21 29 33 -11 c18 -6 40 -16 48 -23 15 -13 63 -41 155 -90 61 -32
77 -19 30 23 -57 53 -87 105 -83 147 l3 37 315 3 c366 3 385 5 388 45 1 16 -2
31 -7 34 -4 3 -9 38 -10 78 -1 40 -5 75 -10 78 -4 3 -7 18 -7 35 1 23 -4 31
-24 36 -14 4 -123 7 -243 8 l-218 1 -35 27 c-50 38 -81 98 -94 178 -24 153 74
583 148 652 27 25 182 103 252 126 132 45 168 74 151 120 -13 35 -80 96 -110
103 -45 10 -51 13 -51 28 0 22 28 27 60 11 16 -8 37 -15 47 -15 19 -1 110 -30
129 -42 23 -15 178 -50 227 -51 61 -1 79 9 187 103 41 36 82 70 91 75 9 6 36
23 59 39 24 16 60 33 79 38 44 13 113 4 149 -19 28 -18 100 -91 139 -140 12
-16 50 -64 85 -108 35 -44 92 -123 126 -175 34 -52 66 -100 72 -107 5 -7 10
-17 10 -23 0 -5 4 -10 9 -10 5 0 13 -10 17 -22 4 -13 17 -45 30 -72 13 -28 24
-55 24 -62 0 -6 6 -16 13 -22 7 -6 14 -25 15 -43 1 -17 6 -39 11 -48 5 -9 12
-55 16 -102 l7 -87 -41 -42 -41 -42 20 -25 c11 -14 20 -30 20 -35 0 -5 13 -37
29 -71 16 -34 29 -75 29 -90 0 -15 1 -30 4 -32 2 -2 25 6 51 18 44 20 47 24
43 53 -6 43 8 54 63 48 100 -12 180 -54 225 -116 15 -21 33 -37 39 -35 6 2 17
30 24 62 11 50 11 66 -2 111 -8 29 -27 62 -41 75 -14 13 -33 32 -42 42 -9 9
-26 17 -38 17 -12 0 -24 7 -28 15 -4 10 -20 15 -51 15 -25 0 -45 5 -45 10 0
17 87 12 94 -5 3 -8 17 -15 31 -15 14 0 44 -12 68 -26 50 -31 127 -112 127
-135 0 -9 7 -22 15 -29 11 -9 15 -32 15 -81 0 -38 4 -69 9 -69 15 0 17 120 4
153 -7 16 -13 40 -13 52 0 13 -4 25 -9 27 -4 2 -19 23 -32 46 -13 24 -27 43
-32 43 -23 -4 -110 56 -102 69 3 4 -14 4 -36 -1 -28 -7 -45 -6 -55 2 -7 6 -35
13 -61 15 -40 4 -52 2 -67 -15 -10 -11 -23 -18 -28 -15 -5 3 -20 -1 -33 -10
-28 -19 -89 -22 -83 -4 2 6 25 17 51 25 48 14 63 33 27 33 -26 0 -27 33 -1 57
11 11 21 39 26 73 10 87 10 87 68 93 66 7 127 -10 127 -34 0 -10 5 -21 10 -24
6 -4 10 -21 10 -38 0 -75 12 -125 30 -130 16 -4 19 4 25 67 4 39 12 77 17 83
6 7 7 24 4 38 -4 14 -3 26 1 26 36 7 100 4 111 -4 9 -7 17 -6 24 1 7 7 15 12
20 12 12 0 40 -60 35 -75 -3 -7 -1 -46 4 -86 16 -120 17 -143 8 -161 -13 -24
13 -36 64 -28 23 3 58 1 78 -5 32 -9 35 -13 28 -32 -6 -17 -5 -21 7 -16 7 3
14 16 14 29 0 25 17 30 55 15 19 -8 19 -8 -3 -15 -22 -7 -23 -9 -6 -27 9 -10
25 -19 34 -19 10 0 23 -6 29 -14 12 -15 106 -17 128 -3 9 6 63 -29 83 -54 3
-3 22 -9 43 -13 38 -7 46 -22 25 -45 -11 -11 -10 -13 2 -9 8 2 18 20 21 38 4
19 14 39 23 46 18 13 113 17 162 8 33 -6 39 -18 49 -94 13 -104 25 -132 31
-73 4 42 11 74 26 118 11 33 19 40 48 46 19 4 57 3 84 -2 27 -5 50 -9 53 -9
16 0 45 -140 32 -156 -6 -7 -4 -16 6 -24 8 -7 15 -25 15 -41 0 -29 14 -40 22
-16 2 6 5 46 7 87 1 45 9 89 19 110 15 30 23 36 62 41 47 6 106 -3 122 -19 6
-6 11 -34 13 -64 2 -29 6 -83 9 -120 5 -52 3 -74 -9 -99 -15 -28 -20 -30 -51
-25 -21 4 -34 3 -34 -4 0 -5 4 -10 9 -10 5 0 11 -10 13 -22 2 -19 10 -24 41
-26 21 -2 37 1 37 7 0 6 -9 11 -20 11 -11 0 -20 4 -20 9 0 6 12 6 30 0 17 -6
30 -14 30 -18 0 -4 10 -7 23 -7 15 1 21 -4 19 -16 -3 -22 60 -44 85 -30 14 8
22 4 40 -23 13 -19 23 -39 23 -44 0 -6 5 -11 10 -11 9 0 8 21 -3 72 -1 6 4 13
11 15 8 3 12 -10 12 -45 0 -36 4 -52 16 -56 27 -10 34 -7 34 17 0 20 9 27 49
40 70 22 112 10 135 -41 10 -21 17 -42 16 -48 -4 -18 13 -54 25 -54 7 0 18 -6
24 -14 7 -8 21 -12 31 -9 16 4 20 14 21 52 0 25 8 60 18 76 16 28 22 30 81 33
78 4 106 -3 119 -27 6 -10 14 -74 19 -143 11 -139 20 -168 58 -168 19 0 25 -4
22 -17 -3 -14 -12 -17 -41 -15 -20 2 -37 1 -37 -2 0 -3 23 -17 51 -31 49 -24
53 -25 71 -8 10 9 16 23 14 30 -3 8 2 13 14 13 12 0 21 -7 22 -17 0 -10 2 -22
3 -28 2 -5 3 -16 4 -22 0 -7 10 -13 20 -13 11 0 22 6 25 13 3 8 8 7 16 -6 6
-10 23 -22 36 -28 19 -7 24 -14 19 -28 -9 -29 14 -36 24 -8 11 29 27 36 101
44 41 4 64 1 87 -11 31 -16 68 -72 54 -81 -5 -2 -2 -28 5 -57 8 -29 14 -67 14
-85 0 -18 5 -33 10 -33 6 0 10 7 10 16 0 8 4 12 10 9 6 -4 8 15 6 50 -4 53 4
73 23 60 6 -3 6 -17 1 -35 -6 -20 -4 -32 5 -40 18 -15 22 -5 26 60 4 50 2 55
-17 58 -12 2 -30 12 -40 24 -18 19 -18 20 5 39 17 14 34 18 68 15 66 -7 73
-17 73 -102 0 -71 1 -74 20 -62 16 10 23 10 37 -4 13 -13 17 -36 17 -92 1 -71
2 -75 22 -70 15 4 23 -2 32 -21 7 -14 12 -32 12 -40 0 -8 7 -15 15 -15 8 0 15
9 15 20 0 11 -4 20 -9 20 -5 0 -11 10 -13 23 -2 14 -11 23 -25 25 -22 3 -30
21 -17 35 4 4 9 46 10 94 7 158 20 183 96 183 l38 0 0 85 0 85 -38 0 c-54 0
-73 17 -68 60 2 19 4 57 5 83 2 73 21 47 21 -28 0 -67 6 -75 56 -75 l24 0 0
1090 0 1090 -4800 0 -4800 0 0 -1560z m3502 853 c2 -20 9 -29 26 -31 12 -2 22
-7 22 -13 0 -15 -47 -21 -69 -9 -12 6 -26 8 -31 5 -5 -3 -11 -1 -14 4 -4 5 4
11 16 13 17 2 24 11 26 31 2 15 7 27 12 27 5 0 10 -12 12 -27z m2236 -33 c7 0
10 -4 7 -10 -8 -13 -85 -13 -85 -1 0 13 22 21 45 16 11 -3 26 -5 33 -5z
m-1998 -10 c0 -5 -4 -10 -10 -10 -5 0 -10 5 -10 10 0 6 5 10 10 10 6 0 10 -4
10 -10z m2061 -241 c16 -33 19 -55 17 -127 l-3 -87 -30 0 -30 0 -1 85 c0 47
-4 102 -9 124 -6 28 -4 40 6 46 18 12 26 5 50 -41z m687 6 c-3 -3 -9 2 -12 12
-6 14 -5 15 5 6 7 -7 10 -15 7 -18z m-2808 -31 c0 -13 -4 -24 -9 -24 -5 0 -13
-26 -17 -57 -5 -43 -9 -53 -15 -38 -12 32 -10 72 5 84 10 9 13 23 9 49 -6 34
-5 36 10 23 10 -7 17 -24 17 -37z m2865 -32 c8 -74 19 -95 45 -87 26 8 47 -25
49 -77 1 -58 -10 -66 -106 -73 -60 -4 -72 -2 -87 14 -10 11 -16 31 -14 48 2
23 7 27 26 25 37 -5 48 13 50 80 1 34 6 66 11 71 6 6 6 19 0 34 -5 14 -7 29
-3 34 12 20 23 -4 29 -69z m-4081 -2 c5 -36 9 -96 10 -133 1 -58 -2 -71 -19
-83 -11 -9 -31 -13 -45 -10 -14 3 -38 8 -55 11 -16 3 -40 8 -52 11 -22 4 -23
9 -22 92 0 70 13 184 18 162 0 -3 6 -43 12 -89 12 -103 21 -121 57 -121 50 0
59 17 65 113 3 48 1 90 -4 93 -16 9 -10 26 9 22 13 -2 19 -19 26 -68z m4307
-151 c18 -11 60 -11 78 0 7 5 15 28 17 51 2 39 19 65 34 55 4 -2 7 -35 8 -73
3 -87 -9 -99 -96 -103 -91 -4 -96 3 -93 143 1 69 7 118 14 127 10 11 13 -7 18
-89 5 -70 11 -105 20 -111z m129 151 c0 -5 -4 -10 -10 -10 -5 0 -10 5 -10 10
0 6 5 10 10 10 6 0 10 -4 10 -10z m-4711 -142 c1 -36 -3 -50 -16 -56 -18 -10
-136 -8 -152 2 -10 7 -12 76 -2 76 3 0 11 -10 16 -22 8 -19 18 -23 59 -23 42
0 50 3 57 24 5 13 8 28 7 35 -1 6 2 22 7 36 l9 25 7 -25 c4 -14 7 -46 8 -72z
m4916 46 c12 -83 29 -99 41 -39 3 19 10 35 15 35 10 0 23 -65 16 -84 -6 -15
-112 -34 -124 -22 -3 3 -13 1 -20 -6 -11 -9 -16 -9 -23 2 -12 20 0 42 21 37
28 -7 52 37 46 84 -4 28 -1 39 8 39 8 0 16 -19 20 -46z m305 -69 c24 0 35 -5
35 -15 0 -19 -26 -24 -84 -15 l-46 7 23 18 c15 13 22 30 24 57 l1 38 6 -45 c6
-44 7 -45 41 -45z m-5500 8 c0 -29 -15 -52 -26 -40 -3 3 -2 26 2 52 7 52 24
44 24 -12z m5670 -5 c0 -19 -2 -20 -10 -8 -13 19 -13 30 0 30 6 0 10 -10 10
-22z m-5814 -25 c-10 -10 -19 5 -10 18 6 11 8 11 12 0 2 -7 1 -15 -2 -18z
m5867 -10 c-7 -2 -19 -2 -25 0 -7 3 -2 5 12 5 14 0 19 -2 13 -5z m-5055 -41
c-20 -4 -24 -18 -6 -24 6 -2 8 -10 4 -17 -6 -9 -12 -5 -22 14 -17 33 -11 45
19 37 18 -5 19 -7 5 -10z m4142 -82 c0 -5 -11 -10 -25 -10 -14 0 -25 5 -25 10
0 6 11 10 25 10 14 0 25 -4 25 -10z m-5092 -91 c12 -19 27 -237 18 -272 -5
-22 -9 -23 -87 -20 -113 4 -119 11 -118 122 1 90 16 162 36 168 7 3 11 -10 10
-39 -5 -151 9 -194 61 -182 15 4 31 10 35 14 5 4 10 46 13 92 5 93 0 104 -50
110 -16 1 -31 8 -33 15 -7 21 102 13 115 -8z m6300 4 c5 -10 12 -61 16 -113 4
-52 11 -99 17 -104 6 -6 9 -3 9 8 0 9 5 26 10 37 8 15 15 17 29 10 13 -7 18
-23 19 -59 1 -46 -1 -51 -33 -68 -26 -14 -39 -15 -57 -7 -14 6 -32 7 -46 2
-23 -9 -65 2 -76 20 -9 14 16 52 31 47 6 -3 18 1 27 7 20 15 35 180 17 191 -6
4 -11 16 -11 27 0 24 36 26 48 2z m-6572 -163 l-1 -115 -60 -6 c-33 -3 -64 -2
-70 2 -10 7 -16 9 -35 9 -6 0 -10 34 -9 86 1 54 4 81 10 73 5 -8 9 -32 9 -54
0 -56 11 -68 63 -69 66 -1 61 -11 65 154 2 65 4 72 15 55 9 -14 13 -55 13
-135z m6784 53 c1 -114 10 -133 62 -133 45 0 54 21 63 144 4 50 10 83 15 76
11 -17 11 -232 1 -249 -6 -10 -30 -14 -77 -14 -38 0 -72 -5 -76 -11 -4 -6 -12
3 -18 19 -17 44 0 265 20 265 6 0 10 -42 10 -97z m-7073 15 c-3 -7 -5 -2 -5
12 0 14 2 19 5 13 2 -7 2 -19 0 -25z m1153 28 c0 -3 -4 -8 -10 -11 -5 -3 -10
-1 -10 4 0 6 5 11 10 11 6 0 10 -2 10 -4z m-214 -106 c0 -12 -4 -16 -9 -11 -5
5 -6 14 -3 20 10 15 12 14 12 -9z m6548 -21 c-3 -5 -10 -7 -15 -3 -5 3 -7 10
-3 15 3 5 10 7 15 3 5 -3 7 -10 3 -15z m206 -15 c0 -8 -4 -14 -10 -14 -5 0
-10 9 -10 21 0 11 5 17 10 14 6 -3 10 -13 10 -21z m80 11 c0 -8 -4 -15 -10
-15 -5 0 -10 7 -10 15 0 8 5 15 10 15 6 0 10 -7 10 -15z m-7920 -26 l0 -31 68
7 c37 4 72 8 77 9 5 0 10 -6 10 -14 0 -12 -15 -15 -74 -14 -60 0 -76 4 -87 19
-16 22 -18 55 -4 55 6 0 10 -14 10 -31z m147 9 c-3 -8 -6 -5 -6 6 -1 11 2 17
5 13 3 -3 4 -12 1 -19z m7429 -15 c15 -16 17 -16 29 0 17 24 35 21 35 -4 0
-34 -29 -48 -97 -49 -56 0 -63 2 -63 20 0 13 5 17 14 14 8 -3 19 3 26 15 13
25 33 27 56 4z m285 -14 c15 -7 24 -7 34 1 10 8 15 8 20 0 4 -6 5 -14 2 -16
-9 -10 -81 -15 -111 -8 l-30 6 25 14 c30 16 35 17 60 3z m-961 -69 c0 -5 -4
-10 -10 -10 -5 0 -10 5 -10 10 0 6 5 10 10 10 6 0 10 -4 10 -10z m35 -70 c3
-5 1 -10 -4 -10 -6 0 -11 5 -11 10 0 6 2 10 4 10 3 0 8 -4 11 -10z m-7061
-102 c10 -15 16 -65 20 -145 7 -144 8 -143 -103 -143 -97 0 -101 7 -94 158 3
65 10 122 15 129 9 11 43 18 115 21 24 2 36 -4 47 -20z m8045 3 c6 -10 12 -76
13 -146 3 -150 4 -149 -104 -159 -67 -6 -74 -5 -91 15 -14 17 -16 35 -12 93 2
39 5 98 6 131 1 33 6 66 12 73 6 8 37 12 88 12 67 0 80 -3 88 -19z m242 8 c34
-8 37 -12 43 -55 9 -69 7 -207 -4 -224 -14 -22 -127 -31 -167 -12 -38 16 -37
13 -22 168 7 74 15 113 25 120 18 14 75 15 125 3z m-8641 -12 c0 -8 -3 -17 -6
-20 -10 -9 -46 12 -39 24 9 14 45 11 45 -4z m8876 -41 c5 -144 34 -227 50
-141 6 33 23 49 25 23 0 -7 3 -34 5 -60 3 -27 1 -49 -6 -53 -13 -8 -140 -14
-157 -8 -24 9 -13 34 21 48 l34 14 4 93 c3 67 1 97 -9 109 -15 18 -7 31 17 27
11 -2 15 -17 16 -52z m204 34 c0 -5 -4 -10 -10 -10 -5 0 -10 5 -10 10 0 6 5
10 10 10 6 0 10 -4 10 -10z m0 -54 c0 -3 -4 -8 -10 -11 -5 -3 -10 -1 -10 4 0
6 5 11 10 11 6 0 10 -2 10 -4z m-9081 -48 c0 -18 2 -46 4 -63 2 -16 5 -36 5
-42 3 -20 30 -15 42 8 7 11 9 27 6 34 -7 19 14 31 25 14 5 -8 9 -35 9 -60 0
-55 -6 -59 -93 -59 -91 0 -110 23 -39 44 20 7 22 13 22 82 0 41 4 74 9 74 5 0
10 -15 10 -32z m-203 -147 c-8 -7 -32 -14 -53 -15 -40 -1 -113 28 -113 44 0
15 16 12 30 -5 9 -11 24 -13 58 -8 55 7 62 14 62 69 0 66 14 61 22 -8 6 -48 4
-66 -6 -77z m-61 -211 c4 -6 6 -44 6 -85 0 -69 9 -99 24 -75 3 5 17 10 30 10
20 0 25 -6 30 -37 17 -108 17 -103 -4 -103 -11 0 -22 -4 -25 -9 -4 -5 -37 -9
-75 -8 -104 1 -148 44 -68 65 l32 8 3 91 c3 94 -4 111 -44 117 -25 4 -29 23
-7 29 34 9 92 7 98 -3z m428 -145 c7 -17 -8 -29 -29 -21 -12 5 -13 8 -2 20 17
19 24 20 31 1z m-260 -215 c-7 -25 -36 -23 -41 3 -3 12 3 17 21 17 20 0 24 -4
20 -20z"/>
<path d="M6571 8424 c0 -11 3 -14 6 -6 3 7 2 16 -1 19 -3 4 -6 -2 -5 -13z"/>
<path d="M678 7643 c-24 -6 -26 -19 -19 -118 l6 -90 39 -3 c21 -2 42 0 47 5
11 11 14 182 3 193 -12 11 -55 19 -76 13z"/>
<path d="M8713 7626 c-4 -8 -6 -52 -3 -98 l5 -83 38 -3 c20 -2 38 0 39 5 13
69 16 178 4 185 -19 13 -75 9 -83 -6z"/>
<path d="M8991 7636 c-8 -9 -11 -46 -9 -107 l3 -94 45 0 45 0 11 95 c11 101 9
110 -33 110 -12 0 -28 2 -36 5 -7 3 -19 -1 -26 -9z"/>
<path d="M6215 8599 c-3 -4 -5 -41 -4 -81 1 -76 20 -124 44 -115 7 3 17 1 23
-5 8 -8 12 -4 16 13 9 47 15 174 8 185 -8 13 -80 16 -87 3z"/>
<path d="M3448 8588 c-7 -19 3 -98 12 -98 12 0 30 26 23 34 -4 4 3 9 15 13 24
6 29 32 10 51 -16 16 -55 15 -60 0z"/>
<path d="M5937 8587 c-3 -7 -1 -35 4 -61 5 -27 7 -51 5 -55 -9 -14 23 -42 45
-39 20 3 22 8 23 83 l1 80 -36 3 c-24 2 -38 -2 -42 -11z"/>
<path d="M3442 8468 c3 -7 13 -15 22 -16 12 -3 17 1 14 10 -3 7 -13 15 -22 16
-12 3 -17 -1 -14 -10z"/>
<path d="M6311 8304 c0 -11 3 -14 6 -6 3 7 2 16 -1 19 -3 4 -6 -2 -5 -13z"/>
<path d="M2598 8213 c-21 -2 -38 -7 -38 -11 0 -4 18 -6 40 -4 22 2 40 8 40 13
0 5 -1 8 -2 7 -2 -1 -20 -3 -40 -5z"/>
<path d="M7597 8113 c-15 -15 0 -191 16 -186 4 1 13 0 21 -3 40 -15 49 -1 53
76 2 41 5 81 8 87 8 24 -78 47 -98 26z"/>
<path d="M7347 8103 c-5 -8 -10 -90 -8 -120 1 -15 36 -12 52 4 5 5 9 34 7 64
-3 47 -6 54 -25 57 -11 2 -23 -1 -26 -5z"/>
<path d="M7075 8083 c4 -10 11 -34 15 -53 l8 -35 1 43 c0 23 6 42 11 42 6 0
10 5 10 10 0 6 -12 10 -26 10 -21 0 -25 -3 -19 -17z"/>
<path d="M6292 7960 c0 -14 2 -19 5 -12 2 6 2 18 0 25 -3 6 -5 1 -5 -13z"/>
<path d="M7344 7948 c-3 -4 -1 -8 5 -8 5 0 16 -3 25 -6 10 -4 16 -1 16 9 0 16
-37 20 -46 5z"/>
<path d="M7510 7861 c0 -6 5 -13 10 -16 6 -3 10 1 10 9 0 9 -4 16 -10 16 -5 0
-10 -4 -10 -9z"/>
<path d="M1866 7831 c-4 -5 -2 -12 3 -15 5 -4 12 -2 15 3 4 5 2 12 -3 15 -5 4
-12 2 -15 -3z"/>
<path d="M7590 7815 c0 -16 16 -20 24 -6 3 5 -1 11 -9 15 -9 3 -15 0 -15 -9z"/>
<path d="M7760 7740 c0 -5 9 -10 20 -10 11 0 20 -7 20 -15 0 -8 5 -15 10 -15
15 0 12 16 -6 34 -17 18 -44 21 -44 6z"/>
<path d="M1610 7660 c0 -5 7 -10 16 -10 8 0 12 5 9 10 -3 6 -10 10 -16 10 -5
0 -9 -4 -9 -10z"/>
<path d="M8435 7618 c-3 -7 -3 -29 -1 -48 3 -19 5 -43 5 -53 1 -10 6 -15 11
-12 6 3 10 -1 10 -10 0 -9 -4 -13 -10 -10 -5 3 -10 -2 -10 -12 0 -15 7 -18 38
-18 l37 1 0 85 0 84 -38 3 c-24 2 -39 -1 -42 -10z"/>
<path d="M5775 7599 c-67 -28 -296 -101 -405 -129 -255 -65 -492 -112 -813
-160 -89 -13 -434 -13 -511 1 -134 23 -244 52 -323 86 -17 7 -36 13 -42 13 -6
0 -11 5 -11 10 0 6 -7 10 -15 10 -17 0 -20 -25 -5 -35 6 -3 10 -32 10 -63 1
-31 5 -77 11 -102 6 -25 14 -67 19 -95 4 -27 15 -86 24 -130 9 -44 21 -102 26
-130 5 -27 16 -75 25 -105 9 -30 20 -71 24 -90 8 -37 75 -241 91 -275 5 -11
25 -55 44 -98 20 -44 36 -84 36 -90 0 -6 -9 -30 -20 -53 -16 -33 -32 -48 -73
-67 -114 -55 -266 -126 -347 -162 -47 -20 -121 -53 -165 -72 -143 -64 -165
-73 -170 -73 -4 0 -32 -13 -63 -28 -90 -45 -223 -92 -417 -147 -155 -44 -236
-69 -300 -92 -38 -14 -82 -27 -98 -30 -15 -3 -30 -9 -33 -14 -3 -5 -12 -9 -21
-9 -8 0 -29 -6 -46 -14 -18 -8 -90 -33 -162 -56 -166 -54 -178 -61 -250 -134
-100 -101 -227 -374 -251 -536 -3 -25 -15 -83 -26 -130 -11 -47 -23 -107 -28
-135 -4 -27 -15 -77 -25 -110 -9 -33 -20 -80 -25 -105 -7 -41 -30 -130 -65
-255 -13 -45 -28 -102 -55 -205 -13 -47 -48 -175 -64 -230 -7 -25 -25 -88 -39
-140 -35 -131 -96 -342 -104 -360 -3 -8 -7 -20 -8 -26 -10 -44 -39 -131 -47
-141 -13 -16 -98 -17 -98 -2 0 6 -6 9 -12 6 -7 -2 -12 -10 -10 -16 5 -26 -30
-6 -43 24 -7 17 -9 17 -12 4 -4 -16 -7 -16 -44 -1 -35 14 -43 14 -79 -1 -43
-16 -59 -14 -150 25 -35 14 -65 18 -130 16 -87 -2 -130 6 -130 23 0 6 5 7 10
4 6 -3 10 -2 10 4 0 22 -42 30 -174 32 l-137 2 -23 33 c-13 19 -26 31 -29 27
-4 -3 -7 -696 -7 -1540 l0 -1533 4800 0 4800 0 0 1676 c0 1592 -1 1676 -17
1669 -10 -4 -52 -16 -93 -27 -41 -11 -79 -24 -84 -29 -6 -5 -18 -9 -28 -9 -10
0 -18 -4 -18 -8 0 -9 -63 -34 -77 -30 -22 6 -83 -14 -83 -27 0 -11 -13 -15
-53 -15 -29 0 -58 -5 -64 -11 -17 -17 -112 -49 -127 -43 -8 3 -22 -6 -33 -19
-12 -16 -29 -24 -48 -24 -19 0 -34 -8 -43 -22 -11 -16 -25 -21 -60 -21 -29 0
-53 -6 -65 -17 -11 -10 -17 -12 -13 -5 4 6 2 12 -3 12 -6 0 -11 -4 -11 -9 0
-9 -33 -24 -55 -26 -5 0 -12 -11 -15 -25 -8 -32 -22 -10 -19 28 2 15 -5 41
-14 59 -9 18 -17 41 -17 53 0 11 -4 28 -10 38 -9 17 -54 185 -71 270 -5 24
-11 47 -13 51 -3 4 -18 61 -35 126 -17 66 -35 129 -40 140 -4 11 -16 47 -26
80 -37 126 -72 237 -85 270 -5 11 -16 45 -26 75 -9 30 -20 64 -25 75 -4 11
-22 65 -40 120 -17 55 -35 105 -39 110 -4 6 -10 19 -13 30 -3 11 -15 45 -27
75 -12 30 -29 80 -39 110 -10 30 -28 75 -39 100 -11 25 -46 108 -77 185 -31
77 -68 164 -81 193 -13 29 -24 56 -24 61 0 5 -7 22 -15 37 -8 16 -15 37 -15
46 0 9 -4 19 -9 22 -4 3 -16 27 -25 53 -24 66 -58 143 -92 205 -16 30 -90 87
-144 111 -37 17 -145 54 -195 68 -16 4 -55 15 -85 24 -30 9 -80 23 -110 31
-30 8 -68 19 -85 24 -39 11 -268 76 -320 91 -22 6 -62 18 -90 26 -27 7 -72 20
-100 28 -27 8 -97 26 -155 41 -58 14 -118 30 -135 34 -64 18 -154 40 -240 60
-157 36 -179 42 -245 73 -68 31 -189 67 -227 67 -44 0 -46 30 -8 115 11 25 47
119 85 220 4 11 16 49 25 85 9 36 21 76 25 90 5 14 11 43 14 65 9 58 24 148
40 245 8 47 18 174 22 283 5 167 9 199 23 206 22 13 11 21 -14 10z m-277
-2729 c2 -12 -6 -36 -17 -51 -12 -16 -32 -48 -45 -71 -13 -24 -41 -75 -63
-114 -73 -130 -69 -146 55 -223 105 -66 255 -213 329 -321 53 -80 123 -211
123 -232 0 -7 7 -25 14 -40 8 -16 18 -49 22 -75 4 -27 13 -64 21 -84 8 -22 13
-61 11 -100 l-3 -64 -1255 0 -1255 0 1 100 c1 60 6 110 14 124 6 13 13 33 15
45 7 58 112 277 168 351 49 64 127 146 187 197 66 57 165 128 178 128 5 0 22
10 37 22 23 18 26 27 22 59 -3 21 -14 51 -25 66 -11 16 -39 64 -61 107 -22 43
-52 93 -66 111 -32 43 -34 88 -3 83 16 -2 36 -31 82 -120 94 -181 128 -233
154 -236 13 -2 69 11 125 28 56 17 116 36 132 41 17 5 92 14 168 21 216 19
401 -5 596 -76 l74 -27 24 23 c33 30 125 189 170 293 28 64 64 82 71 35z
m-2389 -1471 c58 -17 114 -61 141 -111 50 -92 52 -117 46 -748 -2 -322 -8
-605 -11 -630 -8 -50 -24 -79 -69 -128 -109 -118 -323 -103 -410 28 -50 75
-50 85 -53 730 -3 533 -1 612 13 665 27 100 89 170 172 195 40 12 129 12 171
-1z m3345 -4 c49 -21 113 -80 139 -129 22 -41 22 -42 22 -711 l0 -670 -27 -47
c-91 -154 -297 -185 -422 -63 -34 33 -49 58 -65 110 -20 65 -21 88 -21 665 0
671 1 687 67 767 67 83 209 119 307 78z m-506 -973 l2 -942 -24 -48 c-40 -76
-60 -101 -107 -130 -53 -34 -112 -52 -167 -52 -39 0 -41 2 -48 34 -3 19 -7
103 -7 185 l-2 151 -67 0 c-51 0 -68 -3 -68 -14 0 -7 9 -16 20 -19 16 -4 20
-14 20 -52 0 -46 -1 -47 -27 -41 -31 8 -81 -10 -106 -38 -16 -17 -18 -34 -15
-95 3 -62 7 -76 27 -92 13 -10 34 -19 48 -19 22 0 24 -3 17 -23 -4 -12 -10
-173 -13 -357 -6 -320 -7 -337 -28 -376 -28 -52 -104 -120 -140 -126 -59 -10
-198 -2 -223 12 -47 28 -92 75 -118 125 l-26 50 -4 335 c-2 200 -7 336 -12
338 -6 2 -10 13 -10 24 0 11 -8 22 -20 25 -18 5 -20 14 -20 74 0 71 11 94 30
59 8 -14 21 -20 45 -20 32 0 35 -3 35 -28 0 -68 54 -115 131 -114 84 1 129 63
114 158 -6 45 -29 72 -64 79 -13 2 -31 7 -42 10 -10 4 -24 3 -31 -2 -7 -4 -17
-8 -23 -8 -18 -1 -65 -28 -65 -37 0 -4 -4 -8 -10 -8 -5 0 -10 5 -10 11 0 19
-43 50 -59 43 -9 -3 -53 -5 -98 -5 -56 1 -83 -2 -83 -10 0 -6 8 -13 18 -15 14
-4 17 -17 17 -92 0 -85 -1 -87 -24 -87 l-24 0 -1 165 c-1 148 -3 165 -19 168
-13 3 -15 9 -10 30 5 15 7 62 7 104 -1 61 -6 83 -23 106 -30 43 -102 82 -150
82 -40 0 -109 -29 -131 -55 -76 -91 -64 -237 25 -307 25 -19 42 -23 108 -24
82 -1 97 -9 97 -47 0 -15 -6 -17 -32 -12 -50 9 -98 -21 -115 -70 -21 -61 -9
-122 32 -160 25 -22 32 -34 25 -45 -6 -8 -10 -144 -10 -308 0 -269 -2 -298
-21 -354 -56 -166 -107 -196 -330 -189 -40 1 -54 7 -96 45 -26 24 -58 64 -71
88 -21 44 -22 54 -22 372 0 328 -4 366 -35 366 -8 0 -15 7 -15 15 0 7 -7 18
-16 23 -14 8 -15 14 -4 46 11 33 14 36 51 36 36 0 41 -4 54 -32 11 -28 11 -35
-1 -49 -8 -9 -11 -19 -7 -22 11 -12 463 -8 463 3 0 6 -7 13 -15 16 -12 5 -15
24 -15 86 0 74 -2 82 -28 108 -17 16 -38 27 -52 26 -25 -1 -25 -2 -28 -108 -2
-89 -5 -108 -18 -108 -13 0 -15 12 -11 78 3 42 7 88 9 102 3 24 1 25 -66 28
-67 3 -108 -10 -73 -24 14 -5 17 -21 17 -95 0 -88 0 -89 -25 -89 -18 0 -25 5
-25 20 0 11 -4 20 -10 20 -5 0 -10 8 -10 18 0 19 -41 136 -60 172 -8 16 -9 34
-1 71 6 28 11 66 11 85 0 69 44 53 111 -39 44 -63 70 -81 99 -72 34 11 24 41
-41 125 l-27 36 29 19 c34 23 52 76 41 120 -6 22 -20 36 -52 53 -39 20 -58 22
-140 20 l-95 -3 -5 -165 -6 -165 -48 -125 c-87 -225 -86 -224 -164 -221 -142
6 -225 55 -288 171 -18 34 -19 73 -22 987 l-3 952 38 4 c21 2 587 3 1258 3
l1220 -1 3 -943z m-5021 356 c-3 -8 -6 -5 -6 6 -1 11 2 17 5 13 3 -3 4 -12 1
-19z m3227 -924 c10 -4 16 -18 16 -35 0 -36 -27 -51 -83 -47 -42 3 -42 3 -45
46 l-3 42 50 0 c27 0 56 -3 65 -6z m406 -21 c35 -41 40 -128 10 -166 -29 -36
-63 -49 -107 -41 -73 14 -96 144 -37 207 36 39 100 38 134 0z m-605 -415 c6
-25 5 -28 -19 -28 -24 0 -26 3 -20 28 4 15 9 31 12 35 7 13 20 -4 27 -35z
m619 26 c12 -31 6 -141 -7 -153 -22 -18 -27 -2 -27 86 0 64 3 83 14 83 8 0 17
-7 20 -16z m506 -79 c0 -93 -9 -115 -30 -76 -11 21 -14 129 -4 155 3 9 12 16
20 16 11 0 14 -20 14 -95z m410 69 c15 -39 11 -95 -9 -138 -17 -36 -19 -37
-24 -15 -4 13 -7 59 -7 102 0 62 3 77 15 77 9 0 20 -12 25 -26z"/>
<path d="M5249 4160 c-65 -18 -99 -60 -99 -120 0 -60 64 -120 129 -120 44 0
111 71 111 118 0 35 -19 81 -43 101 -23 18 -69 29 -98 21z"/>
<path d="M4064 4150 c-34 -14 -74 -69 -74 -103 0 -36 35 -92 68 -106 35 -17
77 -13 120 9 48 25 64 54 60 106 -3 34 -9 43 -53 71 -50 33 -82 39 -121 23z"/>
<path d="M4740 3251 c-83 -17 -114 -46 -190 -176 -29 -49 -61 -102 -71 -117
-14 -21 -17 -33 -10 -52 10 -26 47 -56 69 -56 14 0 72 59 72 72 0 19 94 168
114 181 35 23 67 27 100 13 44 -19 67 -48 73 -93 4 -33 -2 -53 -41 -124 -25
-47 -46 -89 -46 -92 0 -4 15 -7 34 -7 19 0 46 -4 60 -9 32 -13 43 -1 106 124
33 66 35 81 19 156 -9 42 -21 61 -68 108 -72 72 -129 90 -221 72z"/>
<path d="M4937 2597 c-23 -35 -22 -104 2 -140 15 -24 19 -26 25 -12 8 21 7 89
-2 139 l-7 40 -18 -27z"/>
<path d="M4412 2280 c7 -11 17 -20 22 -20 5 0 1 9 -9 20 -10 11 -20 20 -22 20
-2 0 2 -9 9 -20z"/>
<path d="M4615 2204 c-27 -8 -63 -13 -80 -10 -25 4 -23 1 15 -16 29 -14 67
-22 105 -22 57 -1 125 18 125 34 0 24 -100 33 -165 14z"/>
<path d="M4806 1918 c-22 -11 -48 -30 -57 -42 -45 -55 -51 -197 -10 -255 36
-50 80 -71 152 -71 52 0 71 5 102 25 52 36 77 90 77 165 0 92 -33 147 -107
181 -54 24 -108 24 -157 -3z m145 -84 c21 -22 24 -35 24 -94 0 -88 -17 -110
-85 -110 -74 0 -97 38 -91 153 3 69 103 103 152 51z"/>
<path d="M5111 1916 c-23 -28 -9 -51 34 -56 66 -9 65 -7 65 -166 0 -81 5 -154
10 -165 8 -13 21 -19 46 -19 48 0 65 35 40 82 -14 27 -17 54 -14 148 l3 115
45 5 c42 5 45 7 45 35 l0 30 -131 3 c-106 2 -133 0 -143 -12z"/>
<path d="M5185 1481 c-3 -6 3 -15 14 -20 17 -9 19 -22 19 -92 0 -60 -3 -82
-14 -86 -8 -3 -14 -11 -14 -19 0 -11 18 -14 75 -14 58 0 75 3 75 14 0 8 -4 16
-10 18 -5 2 -10 49 -11 106 l-1 102 -63 0 c-35 0 -66 -4 -70 -9z"/>
<path d="M8120 7581 c0 -11 5 -23 10 -26 6 -4 10 5 10 19 0 14 -4 26 -10 26
-5 0 -10 -9 -10 -19z"/>
<path d="M1385 7550 c3 -5 11 -10 16 -10 6 0 7 5 4 10 -3 6 -11 10 -16 10 -6
0 -7 -4 -4 -10z"/>
<path d="M1100 7370 c-12 -8 -12 -10 3 -16 9 -3 25 -3 34 0 15 6 15 8 3 16 -8
6 -17 10 -20 10 -3 0 -12 -4 -20 -10z"/>
<path d="M8560 7350 c0 -5 5 -10 10 -10 6 0 10 5 10 10 0 6 -4 10 -10 10 -5 0
-10 -4 -10 -10z"/>
<path d="M9547 7133 c-3 -10 -2 -52 1 -93 6 -68 9 -75 30 -78 21 -3 22 -1 22
92 0 95 0 96 -24 96 -15 0 -27 -7 -29 -17z"/>
<path d="M751 7114 c0 -11 3 -14 6 -6 3 7 2 16 -1 19 -3 4 -6 -2 -5 -13z"/>
<path d="M9023 7123 c-15 -5 -17 -29 -4 -37 5 -3 11 5 13 19 3 14 5 25 4 24 0
0 -7 -3 -13 -6z"/>
<path d="M770 7090 c0 -5 5 -10 10 -10 6 0 10 5 10 10 0 6 -4 10 -10 10 -5 0
-10 -4 -10 -10z"/>
<path d="M555 6949 c-10 -15 3 -25 16 -12 7 7 7 13 1 17 -6 3 -14 1 -17 -5z"/>
<path d="M9556 6852 c-2 -4 7 -15 21 -26 25 -18 25 -18 21 4 -3 22 -33 37 -42
22z"/>
<path d="M225 6740 c3 -5 13 -10 21 -10 8 0 14 5 14 10 0 6 -9 10 -21 10 -11
0 -17 -4 -14 -10z"/>
<path d="M136 6651 c-3 -5 0 -14 8 -20 11 -9 15 -8 20 5 3 8 6 18 6 20 0 8
-29 4 -34 -5z"/>
</g>
</svg>
